<svg width="28" height="28" viewBox="0 0 28 28" fill="none" xmlns="http://www.w3.org/2000/svg">
<path d="M25.1757 1.04248H2.45157C1.67322 1.04248 1.04224 1.67346 1.04224 2.45181V25.1759C1.04224 25.9543 1.67322 26.5853 2.45157 26.5853H25.1757C25.954 26.5853 26.585 25.9543 26.585 25.1759V2.45181C26.585 1.67346 25.954 1.04248 25.1757 1.04248Z" fill="#3D5A98"/>
<path d="M18.6645 26.5832V16.6919H21.9839L22.4803 12.8373H18.6645V10.3769C18.6645 9.26112 18.9753 8.49926 20.5745 8.49926H22.6162V5.04607C21.6276 4.94303 20.634 4.89404 19.64 4.89931C16.7005 4.89931 14.6761 6.69065 14.6761 9.99492V12.8373H11.3567V16.6919H14.6761V26.5832H18.6645Z" fill="white"/>
</svg>
