<svg width="27" height="27" viewBox="0 0 27 27" fill="none" xmlns="http://www.w3.org/2000/svg">
<g clip-path="url(#clip0)">
<path d="M24.3518 0.618749H2.57632C2.08224 0.613721 1.60636 0.804896 1.25307 1.15033C0.89979 1.49575 0.697969 1.96722 0.691895 2.46128V24.3246C0.699067 24.8179 0.901371 25.2883 1.25453 25.6328C1.6077 25.9774 2.08296 26.168 2.57632 26.1629H24.3518C24.8459 26.1668 25.3215 25.975 25.6746 25.6294C26.0277 25.2837 26.2296 24.8124 26.2363 24.3183V2.455C26.2275 1.96239 26.0246 1.49317 25.6717 1.14933C25.3188 0.805482 24.8445 0.614808 24.3518 0.618749Z" fill="#0076B2"/>
<path d="M4.4166 10.0496H8.15146V22.0667H4.4166V10.0496ZM6.28507 4.06885C6.71344 4.06885 7.13218 4.1959 7.48833 4.43393C7.84448 4.67197 8.12203 5.01028 8.28586 5.40608C8.4497 5.80189 8.49246 6.23739 8.40874 6.6575C8.32502 7.07761 8.11858 7.46345 7.81553 7.76621C7.51248 8.06897 7.12645 8.27504 6.70626 8.35836C6.28607 8.44168 5.85061 8.3985 5.45496 8.23429C5.05931 8.07008 4.72126 7.79221 4.48357 7.43583C4.24588 7.07946 4.11922 6.66059 4.11963 6.23222C4.12018 5.65827 4.34856 5.10801 4.7546 4.70236C5.16064 4.29671 5.71111 4.06885 6.28507 4.06885ZM10.4943 10.0496H14.0744V11.6994H14.1239C14.623 10.7549 15.8398 9.75879 17.6567 9.75879C21.439 9.75054 22.1402 12.2398 22.1402 15.4673V22.0667H18.4053V16.22C18.4053 14.828 18.3806 13.0358 16.4647 13.0358C14.5488 13.0358 14.2229 14.5537 14.2229 16.1293V22.0667H10.4943V10.0496Z" fill="white"/>
</g>
<defs>
<clipPath id="clip0">
<rect width="26.3977" height="26.3977" fill="white" transform="translate(0.0732422)"/>
</clipPath>
</defs>
</svg>
