<svg width="26" height="26" viewBox="0 0 26 26" fill="none" xmlns="http://www.w3.org/2000/svg">
<path d="M8.25732 25.5444C17.8972 25.5444 23.1685 15.715 23.1685 7.19285C23.1685 6.91377 23.1685 6.63529 23.1536 6.35842C24.1795 5.44549 25.0652 4.31452 25.7682 3.01892C24.8123 3.54133 23.7984 3.88326 22.7592 4.03544C23.8528 3.22833 24.6714 1.96022 25.062 0.466853C24.033 1.21836 22.9073 1.7478 21.7333 2.03311C20.1096 -0.0923081 17.5285 -0.613121 15.4376 0.764202C13.3478 2.14153 12.2682 5.07285 12.8036 7.91524C8.59019 7.65564 4.66357 5.20557 2.00319 1.1768C0.609834 4.12218 1.31908 7.89335 3.62105 9.78808C2.79326 9.75354 1.98323 9.47587 1.25981 8.97875V9.06107C1.25981 12.1275 3.01318 14.7707 5.45464 15.3839C4.69113 15.6421 3.87098 15.6799 3.08722 15.4929C3.77312 18.1219 5.74082 19.924 7.98352 19.9758C6.12658 21.7664 3.83399 22.7365 1.47434 22.7305C1.05646 22.7305 0.638571 22.7004 0.223877 22.641C2.62024 24.5349 5.40855 25.5404 8.25712 25.5365" fill="#1DA1F2"/>
</svg>
